inDegrees=no
num_controls=7
num_derivatives=13
num_iterations=36
num_multipliers=7
num_parameters=0
num_slacks=7
num_states=26
objective=0.417760
objective_accelerations=0.071549
objective_balance=0.001330
objective_effort=0.018628
objective_height=0.320377
objective_ligament=0.005876
solver_duration=525.470287
status=Solve_Succeeded
success=true
DataType=double
version=3
OpenSimVersion=4.5
endheader
time	/jointset/ground_pelvis/pelvis_tilt/value	/jointset/ground_pelvis/pelvis_tx/value	/jointset/ground_pelvis/pelvis_ty/value	/jointset/hip_l/hip_flexion_l/value	/jointset/hip_l/hip_adduction_l/value	/jointset/hip_l/hip_rotation_l/value	/jointset/back/lumbar_extension/value	/jointset/patellofemoral_l/patellar_flexion_l/value	/jointset/knee_l/knee_flexion_l/value	/jointset/knee_l/knee_adduction_l/value	/jointset/knee_l/knee_rotation_l/value	/jointset/ankle_l/ankle_angle_l/value	/jointset/subtalar_l/subtalar_angle_l/value	/jointset/ground_pelvis/pelvis_tilt/speed	/jointset/ground_pelvis/pelvis_tx/speed	/jointset/ground_pelvis/pelvis_ty/speed	/jointset/hip_l/hip_flexion_l/speed	/jointset/hip_l/hip_adduction_l/speed	/jointset/hip_l/hip_rotation_l/speed	/jointset/back/lumbar_extension/speed	/jointset/patellofemoral_l/patellar_flexion_l/speed	/jointset/knee_l/knee_flexion_l/speed	/jointset/knee_l/knee_adduction_l/speed	/jointset/knee_l/knee_rotation_l/speed	/jointset/ankle_l/ankle_angle_l/speed	/jointset/subtalar_l/subtalar_angle_l/speed	/forceset/tau_hip_flexion_l	/forceset/tau_hip_adduction_l	/forceset/tau_hip_rotation_l	/forceset/tau_knee_flexion_l	/forceset/tau_ankle_angle_l	/forceset/tau_subtalar_angle_l	/forceset/tau_lumbar_extension	lambda_cid13_p0	lambda_cid13_p1	lambda_cid13_p2	lambda_cid13_p3	lambda_cid13_p4	lambda_cid13_p5	lambda_cid14_p0	/jointset/ground_pelvis/pelvis_tilt/accel	/jointset/ground_pelvis/pelvis_tx/accel	/jointset/ground_pelvis/pelvis_ty/accel	/jointset/hip_l/hip_flexion_l/accel	/jointset/hip_l/hip_adduction_l/accel	/jointset/hip_l/hip_rotation_l/accel	/jointset/back/lumbar_extension/accel	/jointset/patellofemoral_l/patellar_flexion_l/accel	/jointset/knee_l/knee_flexion_l/accel	/jointset/knee_l/knee_adduction_l/accel	/jointset/knee_l/knee_rotation_l/accel	/jointset/ankle_l/ankle_angle_l/accel	/jointset/subtalar_l/subtalar_angle_l/accel	gamma_cid13_p0	gamma_cid13_p1	gamma_cid13_p2	gamma_cid13_p3	gamma_cid13_p4	gamma_cid13_p5	gamma_cid14_p0
0.5	-0.2758264219060791	0.01190717375999288	0.7300977762888514	1.182043428632547	-0.3547278572953408	0.02413890435564245	-0.4112978926658785	1.102757083316279	1.10275708331661	0.006696892084254333	-0.1745006304606566	0.3377678005432692	0.1860878762337488	-0.8779585179717267	-0.193481255148191	-0.6998629003031974	2.891896577951259	0.05264984023674855	0.594389207079387	-0.2785984223840686	2.358226032794528	2.358226032794374	0.3798471879076967	-0.001353122357198392	0.5353377383377341	0.3179334651707688	-0.1310388095602337	0.07833737915808361	-0.006297330192363073	-0.204840465282797	0.01310011248985045	-0.01419863109320925	0.1340041568886379	-23.19355928433883	16.34545530131291	-9.875111105029836	0.2361900646154602	-436.7890651066311	-23.22593301301719	-1.300801421495733	0.8107672313421703	0.5834906703659296	-0.5630056166874965	-1.656967207031399	0.1817097170489589	-0.5004396990025815	1.789688554711652	-2.037111978232445	-2.037111978232444	-0.3730229393184394	0.2093790953278093	-1.35066130949699	0.03084856373109039	-1.168588722732219e-07	-4.932515906950653e-06	-9.091660645585118e-07	-7.389445925476165e-07	-3.205963827159736e-07	-2.864147096454444e-06	-3.343011800410968e-07
0.51	-0.2845630817832926	0.01000181446976256	0.7230727517532832	1.21087439028422	-0.354193839903975	0.03005261097981114	-0.4139955764993583	1.126233716344677	1.126233716344847	0.01047784656095521	-0.1745091370324426	0.3430523417371691	0.1892658046092094	-0.8692335878697163	-0.1875685625472438	-0.7049777349899965	2.873915701515433	0.05414059242984037	0.5882650291483215	-0.2609458089987372	2.336788367979648	2.336788367979648	0.3763603155586408	-0.0004007000760715641	0.5214863921521657	0.3175705373991888	-0.1366096971194021	0.07896034546372903	-0.006715802169426998	-0.2087395019583997	0.01209264906987309	-0.01397290104470662	0.1382186603662776	-23.84796857210613	16.61737673000745	-10.21016034682995	0.3611447689775403	-441.3557582337949	-23.37479324554126	-0.937918426392693	0.9242925588040918	0.5983210039801732	-0.4611456524575158	-1.925696929323666	0.1312161132451949	-0.6818615092959822	1.751928027411503	-2.243856583977003	-2.243856583953952	-0.3346928381533173	0.029981452227672	-1.415217292589866	-0.08126627878644428	-1.274396016394276e-07	-4.533129000894158e-06	-5.394017317512867e-07	-6.797556850216506e-07	-3.328022724656553e-07	-2.608650206397861e-06	-3.519506809581507e-07
0.52	-0.2932083050276499	0.008156214595345705	0.7160014942192904	1.239514133358042	-0.3536452233621204	0.0359023848908552	-0.4165169581395908	1.149486620154754	1.149486620154762	0.01422429762299104	-0.1745097578501099	0.3481958002653071	0.1924378231407173	-0.8596711914007705	-0.1815293719854973	-0.709109499988027	2.853652862380979	0.05556967033515118	0.5816026644517607	-0.2433379837346988	2.31348018913032	2.313480189130475	0.3729465049914271	0.0002240285139484716	0.5071212051864734	0.3167514963802499	-0.1421805846785748	0.07958331176943124	-0.007134274147094922	-0.2126385386340123	0.0110851856499192	-0.01374717099609487	0.1424331638439113	-24.50058189729793	16.87791938396321	-10.53075862808125	0.475997132416024	-445.8719547393954	-23.57361032533105	-0.6358956946028433	0.978260504729168	0.6087902625258255	-0.3663916789337909	-2.113359746757117	0.1693748594926909	-0.6080770521016717	1.780730930453033	-2.411214785121871	-2.411214785121887	-0.358410582950015	0.1438403571064003	-1.453429465521741	-0.06037408574067861	-1.416291676196331e-07	-4.05037673303912e-06	-6.166985552951206e-08	-6.024495296083931e-07	-3.583564708281642e-07	-2.269145196495813e-06	-3.772587631266996e-07
0.53	-0.3017540401629047	0.006371593047416121	0.7088938592413788	1.267940218501555	-0.3530826654517959	0.0416844989258281	-0.4188625958662137	1.172497305810872	1.172497305810676	0.01793568140161222	-0.1745048918091301	0.3531931836576583	0.195599242315889	-0.8493557941948154	-0.1753770672043203	-0.7122476702874297	2.83119668000263	0.0569358039613293	0.5747417743508541	-0.2258226269813721	2.288353471357603	2.288353471357695	0.3693483115778547	0.0007166384442732935	0.4922877403209184	0.3154615306098907	-0.1474434830456839	0.07998179668533476	-0.007611094487712736	-0.2170603862077531	0.01068526327090282	-0.01361518384396682	0.1463846227581974	-24.97561704112	17.1726613577607	-10.88488383951607	0.4673920439973105	-450.4929547826302	-23.76893985498026	-0.3943177619314391	1.076142774439083	0.6210187766086699	-0.2621302652056595	-2.366913787802612	0.1195131531652291	-0.7372738024276271	1.73197823904693	-2.608842773198057	-2.608842773207351	-0.3583571141194101	-0.003010285761186983	-1.508654876318975	-0.173350559591496	-1.581538083139951e-07	-3.591851908927151e-06	4.327269939935312e-07	-5.257024653509438e-07	-3.837142395303586e-07	-1.893079720212673e-06	-4.107705474278139e-07
0.54	-0.3101930286369127	0.004649008185437188	0.7017599224485204	1.296130708560398	-0.352506590097408	0.04739556829710157	-0.4210340719870478	1.195247635789291	1.195247635788894	0.02161151656752633	-0.1744960959881716	0.3580401624255153	0.1987457532859754	-0.8383218591524421	-0.1691220347953671	-0.7143698629772933	2.806533845447131	0.05827315914691599	0.5673937317162338	-0.2085056625770655	2.261409053590833	2.261409053590863	0.3658367824219313	0.001009984504324099	0.4770402802854994	0.313769855363206	-0.1527063814128267	0.08038028160113618	-0.008087914827566163	-0.2214822337814776	0.01028534089185966	-0.01348319669202366	0.1503360816724546	-25.44958036723795	17.45493046834254	-11.22298865208385	0.443649303456086	-455.0857532878014	-24.02760966930049	-0.2131245974289033	1.121968072012818	0.6293357880811037	-0.163196157025942	-2.554690182187014	0.1636191713743751	-0.7055075588445554	1.741052460648983	-2.774754783932472	-2.774754783932474	-0.3410777314201986	0.1039875830513476	-1.536228499494471	-0.1407159810059036	-1.772619359261472e-07	-3.160131916190495e-06	9.455616863179787e-07	-4.495739700318354e-07	-4.08854681799865e-07	-1.476564366231303e-06	-4.533587681309156e-07
